<svg width="160" height="258" viewBox="0 0 160 258" fill="none" xmlns="http://www.w3.org/2000/svg">
<path d="M80 257.982C124.183 257.982 160 254.205 160 249.546C160 244.888 124.183 241.111 80 241.111C35.8172 241.111 0 244.888 0 249.546C0 254.205 35.8172 257.982 80 257.982Z" fill="#263238"/>
<path d="M77.2676 3.79129C77.2676 3.79129 88.6142 -2.12029 95.7245 3.26267C102.835 8.64564 101.986 14.3413 99.6408 16.6047C97.2955 18.8681 96.9828 21.191 97.7124 23.6107C98.4421 26.0305 97.0349 34.9946 99.477 37.0123C101.919 39.03 104.897 43.929 103.602 47.5698C102.306 51.2106 98.7622 53.7122 96.6328 53.7122C94.5035 53.7122 90.2373 53.3399 88.6589 48.8206C88.1291 47.3742 87.2875 46.0621 86.1938 44.9774C85.1001 43.8927 83.7811 43.062 82.3304 42.5442C81.9507 42.5591 77.1633 3.04676 77.2676 3.79129Z" fill="#263238" stroke="#263238" stroke-linecap="round" stroke-linejoin="round"/>
<path d="M58.9223 158.996C58.9223 158.996 59.0935 194.808 59.4732 200.214C59.853 205.619 61.0368 229.742 61.0368 229.742C61.0368 229.742 59.704 231.052 60.1284 232.229C60.5528 233.405 61.6845 237.195 61.6845 237.195H74.6915C74.6915 237.195 75.4732 232.958 75.6296 231.64C75.786 230.323 75.3839 227.404 75.3988 226.674C75.4137 225.945 78.2131 158.996 78.2131 158.996H58.9223Z" fill="#263238" stroke="#263238" stroke-linecap="round" stroke-linejoin="round"/>
<path d="M99.3951 237.195C99.3951 237.195 100.668 240.701 102.113 241.87C103.557 243.039 112 246.405 112.536 247.425C113.072 248.445 111.933 249.323 111.196 250.202C110.459 251.08 98.7548 251.08 96.4169 251.08C94.0791 251.08 86.4923 250.202 84.5938 250.202C82.6952 250.202 81.2434 249.182 81.8539 246.844C82.4644 244.506 83.0302 236.584 83.0302 236.584C85.4946 234.436 88.7005 233.335 91.9646 233.517C97.2359 233.978 99.3951 237.195 99.3951 237.195Z" fill="white" stroke="#263238" stroke-linecap="round" stroke-linejoin="round"/>
<path d="M112.737 248.095C110.951 248.553 109.142 248.916 107.317 249.182C104.83 249.472 90.9372 248.594 88.0335 248.154C86.0456 247.856 83.3802 247.291 81.8837 246.956C81.3551 249.189 82.7846 250.202 84.6533 250.202C86.5221 250.202 94.1387 251.08 96.4765 251.08C98.8143 251.08 110.511 251.08 111.255 250.202C111.806 249.524 112.633 248.839 112.737 248.095Z" fill="white" stroke="#263238" stroke-linecap="round" stroke-linejoin="round"/>
<path d="M81.7124 160.024C81.7124 160.024 83.0302 197.995 83.3727 206.498C83.7152 215 82.9558 230.628 82.9558 230.628C82.9558 230.628 81.1912 231.797 81.3253 232.526C81.4593 233.256 82.2857 238.222 82.2857 238.222C82.2857 238.222 86.5072 239.711 89.2843 239.711C92.0614 239.711 93.5505 237.373 94.7268 236.785C95.9032 236.197 99.4025 237.224 99.4025 237.224C99.4025 237.224 100.147 234.447 99.8864 232.988C99.6258 231.529 97.7124 231.231 97.4295 230.352C97.1466 229.474 102.18 159.756 102.18 159.756L81.7124 160.024Z" fill="#263238" stroke="#263238" stroke-linecap="round" stroke-linejoin="round"/>
<path d="M68.564 49.8257L52.4374 58.7601L54.3434 115.553L51.5365 169.8L56.0707 171.802L59.0489 163.426L59.6743 172.361C59.6743 172.361 72.9269 175.093 84.9437 175.272C96.9604 175.451 106.848 169.993 106.848 169.993L107.131 112.835L115.819 84.99C115.819 84.99 107.228 56.4074 105.604 55.1342C103.981 53.8611 89.3141 46.9444 89.3141 46.9444H73.329L68.564 49.8257Z" fill="white" stroke="#263238" stroke-linecap="round" stroke-linejoin="round"/>
<path d="M108.478 89.0328L105.016 66.5554" stroke="#263238" stroke-linecap="round" stroke-linejoin="round"/>
<path d="M87.1177 167.64L87.0582 172.629" stroke="#263238" stroke-linecap="round" stroke-linejoin="round"/>
<path d="M87.825 105.837L87.155 164.387" stroke="#263238" stroke-linecap="round" stroke-linejoin="round"/>
<path d="M77.8036 127.272C78.5109 127.22 79.2406 127.16 79.9925 127.086" stroke="#263238" stroke-linecap="round" stroke-linejoin="round"/>
<path d="M61.9898 127.086C61.9898 127.086 66.4942 127.868 74.9967 127.443" stroke="#263238" stroke-linecap="round" stroke-linejoin="round"/>
<path d="M102.507 125.731C103.661 125.597 104.986 125.411 106.468 125.135" stroke="#263238" stroke-linecap="round" stroke-linejoin="round"/>
<path d="M97.1391 126.006C97.1391 126.006 98.0028 126.058 99.6035 126.006" stroke="#263238" stroke-linecap="round" stroke-linejoin="round"/>
<path d="M65.1987 130.771C68.2792 131.291 71.4184 131.366 74.5203 130.995" stroke="#263238" stroke-linecap="round" stroke-linejoin="round"/>
<path d="M73.4035 48.0984L70.9688 62.5125L75.4509 64.7759L71.1996 68.4986L87.6836 93.2543L100.534 66.5256L96.3052 63.3911L99.8641 59.6238L94.9279 49.6173L89.7683 46.9593L73.4035 48.0984Z" fill="white" stroke="#263238" stroke-linecap="round" stroke-linejoin="round"/>
<path d="M74.8404 52.8634L87.7506 88.6754C87.7506 88.6754 93.2452 64.1952 93.7068 58.2613C94.1684 52.3274 91.1456 46.0212 90.2522 45.4851C89.3587 44.949 76.1061 36.6624 74.8404 52.8634Z" fill="white" stroke="#263238" stroke-linecap="round" stroke-linejoin="round"/>
<path d="M79.315 65.2301L85.4798 57.1147L92.1582 64.7387" stroke="#263238" stroke-linecap="round" stroke-linejoin="round"/>
<path d="M81.9209 61.8052L85.0107 65.9002L83.2759 76.2566L87.7506 88.6754L90.2224 75.6908L87.289 65.6098L89.0535 61.6191L85.4798 57.1147L81.9209 61.8052Z" fill="#263238" stroke="#263238" stroke-linecap="round" stroke-linejoin="round"/>
<path d="M102.597 87.2385L101.621 88.0277L94.5332 79.0933C94.4824 79.0288 94.4447 78.9548 94.4225 78.8758C94.4002 78.7967 94.3937 78.714 94.4033 78.6324C94.413 78.5508 94.4387 78.4719 94.4789 78.4003C94.519 78.3286 94.5729 78.2656 94.6375 78.2147C94.7669 78.1112 94.9321 78.0632 95.0968 78.0813C95.2615 78.0995 95.4123 78.1823 95.516 78.3115L102.597 87.2385Z" stroke="#263238" stroke-linecap="round" stroke-linejoin="round"/>
<path d="M96.2233 79.2199L95.516 78.3264C95.4124 78.1961 95.2612 78.1123 95.0957 78.0934C94.9303 78.0746 94.7641 78.1222 94.6338 78.2259C94.5034 78.3296 94.4196 78.4808 94.4008 78.6462C94.3819 78.8117 94.4296 78.9779 94.5332 79.1082L95.2406 80.0016L96.2233 79.2199Z" stroke="#263238" stroke-linecap="round" stroke-linejoin="round"/>
<path d="M82.7027 96.4558L90.9595 92.2938C90.9595 92.2938 95.6128 84.6996 96.0744 84.5656C96.5361 84.4316 102.068 86.0547 102.068 86.0547L106.319 89.487L103.416 96.5972C103.416 96.5972 98.0102 97.58 97.5188 97.8257C97.0274 98.0714 94.429 100.149 92.7017 100.886C91.3207 101.37 89.8691 101.621 88.4058 101.63L83.3504 104.057L82.7027 96.4558Z" fill="white" stroke="#263238" stroke-linecap="round" stroke-linejoin="round"/>
<path d="M97.772 87.1863L101.964 88.735L105.277 91.6461" stroke="#263238" stroke-linecap="round" stroke-linejoin="round"/>
<path d="M97.489 90.4027L101.189 91.8918L104.383 94.1254" stroke="#263238" stroke-linecap="round" stroke-linejoin="round"/>
<path d="M96.0819 94.1849L98.0624 94.1254L101.688 96.5972" stroke="#263238" stroke-linecap="round" stroke-linejoin="round"/>
<path d="M108.508 75.5121L94.1759 108.651L120.793 111.361L134.038 80.0686L108.508 75.5121Z" fill="#263238" stroke="#263238" stroke-linecap="round" stroke-linejoin="round"/>
<path d="M116.266 78.0956L117.241 75.5046L123.868 75.6684L128.588 77.5L127.501 80.0686L116.266 78.0956Z" fill="white" stroke="#263238" stroke-linecap="round" stroke-linejoin="round"/>
<path d="M130.04 95.1231C130.04 95.1231 123.488 94.0137 123.071 94.8178C122.654 95.6219 123.071 96.3069 123.659 96.4334C124.248 96.56 128.089 97.7513 129.102 97.5428C129.35 97.4832 129.58 97.3643 129.772 97.1964C129.964 97.0285 130.112 96.8165 130.205 96.5786C130.297 96.3408 130.33 96.0841 130.301 95.8306C130.273 95.5771 130.183 95.3343 130.04 95.1231Z" fill="white" stroke="#263238" stroke-linecap="round" stroke-linejoin="round"/>
<path d="M125.26 97.0365C125.26 97.0365 121.925 96.8951 121.709 97.5949C121.614 97.8963 121.639 98.2223 121.777 98.5062C121.916 98.79 122.158 99.0101 122.453 99.1212C124.027 99.4922 125.628 99.7411 127.241 99.8657C128.074 99.8657 128.648 98.9648 128.439 98.4735C128.231 97.9821 128.104 97.781 127.896 97.7289C127.687 97.6768 125.26 97.0365 125.26 97.0365Z" fill="white" stroke="#263238" stroke-linecap="round" stroke-linejoin="round"/>
<path d="M127.241 99.8881C127.241 99.8881 127.084 101.489 126.459 101.697C125.084 101.854 123.692 101.735 122.364 101.347C121.619 100.997 121.329 100.655 122.021 100.305C122.881 100.044 123.773 99.9041 124.672 99.8881H127.241Z" fill="white" stroke="#263238" stroke-linecap="round" stroke-linejoin="round"/>
<path d="M125.625 101.764C125.625 101.764 125.953 103.082 125.193 103.253C124.434 103.425 122.059 103.529 121.992 103.045C121.925 102.561 124.583 101.861 124.583 101.861L125.625 101.764Z" fill="white" stroke="#263238" stroke-linecap="round" stroke-linejoin="round"/>
<path d="M62.4811 52.0891C62.4811 52.0891 45.826 58.6633 46.0568 60.0109C46.2876 61.3585 48.4169 111.711 49.0349 112.076C49.6528 112.441 84.9139 107.735 84.9139 107.735L84.08 95.0784L64.0819 96.426L62.3173 68.3571" fill="white"/>
<path d="M62.4811 52.0891C62.4811 52.0891 45.826 58.6633 46.0568 60.0109C46.2876 61.3585 48.4169 111.711 49.0349 112.076C49.6528 112.441 84.9139 107.735 84.9139 107.735L84.08 95.0784L64.0819 96.426L62.3173 68.3571" stroke="#263238" stroke-linecap="round" stroke-linejoin="round"/>
<path d="M64.067 96.4558L56.577 97.1929" stroke="#263238" stroke-linecap="round" stroke-linejoin="round"/>
<path d="M74.6915 237.195C74.6915 237.195 70.3508 233.398 68.2959 233.829C66.241 234.261 61.6994 235.587 61.6845 237.195C61.6696 238.803 61.007 241.23 60.9995 241.811C60.9921 242.392 59.5105 248.303 60.255 249.762C60.9995 251.222 66.3602 252.54 68.1173 252.1C69.8744 251.661 73.5374 250.931 74.2969 248.742C74.8308 246.791 74.9525 244.75 74.6543 242.749C74.4905 241.729 74.6915 237.195 74.6915 237.195Z" fill="white" stroke="#263238" stroke-linecap="round" stroke-linejoin="round"/>
<path d="M74.2671 248.742C74.4277 248.257 74.5473 247.759 74.6245 247.253C73.0014 248.839 69.9637 250.76 67.0228 250.589C64.618 250.455 61.4611 248.921 60.0391 248.169C59.9854 248.71 60.0489 249.256 60.2252 249.77C60.9697 251.259 66.3304 252.547 68.0875 252.108C69.8446 251.668 73.5077 250.931 74.2671 248.742Z" fill="white" stroke="#263238" stroke-linecap="round" stroke-linejoin="round"/>
<path d="M82.5388 5.65262L96.2978 12.2938C96.2978 12.2938 98.6356 21.6973 99.5663 27.3855C100.497 33.0737 99.4993 36.7741 96.7818 38.1961C94.6472 39.1932 92.396 39.9186 90.081 40.3553L89.4556 49.7066C89.4556 49.7066 85.9935 55.983 85.4798 57.1073C84.966 58.2315 80.268 50.8383 80.268 50.8383L75.7413 7.94578L82.5388 5.65262Z" fill="white" stroke="#263238" stroke-linecap="round" stroke-linejoin="round"/>
<path d="M94.1684 20.6028C94.1684 20.6028 96.6031 26.1868 95.9628 27.043C95.3225 27.8992 92.9846 28.3906 92.9846 28.3906" stroke="#263238" stroke-linecap="round" stroke-linejoin="round"/>
<path d="M88.0484 30.2817C88.0484 30.2817 89.2992 32.8727 93.5803 31.7187" stroke="#263238" stroke-linecap="round" stroke-linejoin="round"/>
<path d="M89.2769 21.9206C89.3885 22.7098 89.1726 23.4097 88.7929 23.4097C88.4132 23.4097 88.0484 22.8811 87.9069 22.0919C87.7655 21.3027 88.0112 20.6028 88.3909 20.5582C88.7706 20.5135 89.1652 21.1314 89.2769 21.9206Z" fill="#263238"/>
<path d="M97.0423 20.7368C97.154 21.526 96.9381 22.2259 96.5584 22.2706C96.1787 22.3152 95.8138 21.7345 95.6724 20.9453C95.5309 20.1561 95.7766 19.4562 96.1563 19.4116C96.5361 19.3669 96.9307 19.9253 97.0423 20.7368Z" fill="#263238"/>
<path d="M92.6347 21.4144C92.5592 20.8862 92.3797 20.3782 92.1066 19.9198C91.8334 19.4614 91.4721 19.0617 91.0435 18.7439C90.6149 18.4261 90.1275 18.1965 89.6096 18.0682C89.0917 17.94 88.5534 17.9158 88.026 17.997C86.9536 18.1609 85.9887 18.74 85.3396 19.6092C84.6905 20.4784 84.4092 21.568 84.5565 22.6428C84.6301 23.1719 84.8084 23.681 85.0809 24.1404C85.3535 24.5998 85.7149 25.0002 86.1439 25.3184C86.573 25.6365 87.0611 25.866 87.5799 25.9934C88.0986 26.1208 88.6375 26.1435 89.1652 26.0603C90.2376 25.8963 91.2025 25.3173 91.8516 24.448C92.5008 23.5788 92.782 22.4892 92.6347 21.4144Z" stroke="#263238" stroke-linecap="round" stroke-linejoin="round"/>
<path d="M100.825 20.1636C100.512 17.93 98.8515 16.3516 97.1019 16.6121C95.3522 16.8727 94.2131 18.8978 94.5258 21.124C94.8385 23.3502 96.5063 24.9435 98.2485 24.6754C99.9907 24.4074 101.107 22.3897 100.825 20.1636Z" stroke="#263238" stroke-linecap="round" stroke-linejoin="round"/>
<path d="M84.5565 22.6354L80.6999 23.2236" stroke="#263238" stroke-linecap="round" stroke-linejoin="round"/>
<path d="M92.6347 21.4144C92.6347 21.4144 93.0517 19.9253 94.496 21.1314" stroke="#263238" stroke-linecap="round" stroke-linejoin="round"/>
<path d="M98.1964 20.5582L100.787 20.1636" stroke="#263238" stroke-linecap="round" stroke-linejoin="round"/>
<path d="M85.2564 18.4362C85.2564 18.4362 87.4155 16.1282 90.2597 17.4162" stroke="#263238" stroke-linecap="round" stroke-linejoin="round"/>
<path d="M94.6301 16.7387C94.6301 16.7387 95.8809 15.2496 97.02 15.9942" stroke="#263238" stroke-linecap="round" stroke-linejoin="round"/>
<path d="M87.423 8.01278C86.3736 10.4519 85.4905 12.9593 84.7799 15.5177C83.6035 19.7541 78.7417 26.1496 80.3648 29.5744C81.9879 32.9993 86.2317 38.4418 84.765 45.8499C83.2983 53.258 78.7492 56.385 71.7208 56.6382C67.4844 56.7871 62.9651 55.5214 60.0763 52.3125C58.5173 50.5373 57.5107 48.3455 57.1801 46.0063C56.4728 41.4497 60.7687 39.0672 60.5826 34.9276C60.3949 33.4753 59.9961 32.0581 59.3988 30.721C56.6663 22.8662 58.6543 12.3385 64.4839 6.15145C69.7403 0.567463 79.2331 -1.56935 87.423 8.01278Z" fill="#263238" stroke="#263238" stroke-linecap="round" stroke-linejoin="round"/>
</svg>
