<svg xmlns="http://www.w3.org/2000/svg" viewBox="0 0 500 500"><g id="freepik--background-complete--inject-243"><rect y="382.4" width="500" height="0.25" style="fill:#ebebeb"></rect><rect x="416.78" y="398.49" width="33.12" height="0.25" style="fill:#ebebeb"></rect><rect x="322.53" y="401.21" width="8.69" height="0.25" style="fill:#ebebeb"></rect><rect x="396.59" y="389.21" width="19.19" height="0.25" style="fill:#ebebeb"></rect><rect x="52.46" y="390.89" width="43.19" height="0.25" style="fill:#ebebeb"></rect><rect x="104.56" y="390.89" width="6.33" height="0.25" style="fill:#ebebeb"></rect><rect x="131.47" y="395.11" width="93.68" height="0.25" style="fill:#ebebeb"></rect><path d="M237,337.8H43.91a5.71,5.71,0,0,1-5.7-5.71V60.66A5.71,5.71,0,0,1,43.91,55H237a5.71,5.71,0,0,1,5.71,5.71V332.09A5.71,5.71,0,0,1,237,337.8ZM43.91,55.2a5.46,5.46,0,0,0-5.45,5.46V332.09a5.46,5.46,0,0,0,5.45,5.46H237a5.47,5.47,0,0,0,5.46-5.46V60.66A5.47,5.47,0,0,0,237,55.2Z" style="fill:#ebebeb"></path><path d="M453.31,337.8H260.21a5.72,5.72,0,0,1-5.71-5.71V60.66A5.72,5.72,0,0,1,260.21,55h193.1A5.71,5.71,0,0,1,459,60.66V332.09A5.71,5.71,0,0,1,453.31,337.8ZM260.21,55.2a5.47,5.47,0,0,0-5.46,5.46V332.09a5.47,5.47,0,0,0,5.46,5.46h193.1a5.47,5.47,0,0,0,5.46-5.46V60.66a5.47,5.47,0,0,0-5.46-5.46Z" style="fill:#ebebeb"></path><path d="M353.52,302.57c0-.83-2.84-83.7-16.32-96.81-13.11-12.74-28.15-.47-28.79.06l-1.35-1.62c.17-.15,17.15-14,31.61.05,14.09,13.7,16.84,94.81,16.95,98.26Z" style="fill:#e0e0e0"></path><path d="M354.67,318.86c-.09-1-9.21-99.48,26.76-140.77l1.59,1.39c-35.37,40.6-26.34,138.19-26.25,139.17Z" style="fill:#e0e0e0"></path><path d="M353.34,308.44l-2.1-.14c.07-1.12,7-112-19.35-136.24l1.43-1.55C360.44,195.46,353.65,303.84,353.34,308.44Z" style="fill:#e0e0e0"></path><path d="M356.78,308.38l-2.11,0c0-3.05.87-74.88,21.27-86.57,4.54-2.6,9-3,13.2-1.29,12.34,5.11,18.45,27.06,18.71,28l-2,.56c-.06-.22-6.1-21.89-17.48-26.6-3.58-1.48-7.4-1.09-11.34,1.17C357.63,234.72,356.78,307.64,356.78,308.38Z" style="fill:#e0e0e0"></path><path d="M348.83,308.43l-2.1-.12c0-.57,3.08-56.76-12.09-76.56C331,227,327,224.67,322.76,225c-9.93.7-18.27,15.24-18.35,15.39l-1.84-1c.36-.64,9-15.67,20-16.45,4.95-.35,9.57,2.21,13.7,7.61C352,250.89,349,306.09,348.83,308.43Z" style="fill:#e0e0e0"></path><path d="M352.16,316.07c-.42-5.45-9.92-133.75,6.8-156.36l1.7,1.25c-16.26,22-6.5,153.63-6.4,155Z" style="fill:#e0e0e0"></path><path d="M393.69,233.51s-10,3.69-7.05,12.42S421.33,269,421.33,269s13.28-12.18,1.09-32S394,227.26,393.69,233.51Z" style="fill:#ebebeb"></path><path d="M350.09,216.89s10.68-.44,11.29,8.76-23.14,34.66-23.14,34.66-16.94-6.12-13.3-29.09S347.44,211.23,350.09,216.89Z" style="fill:#ebebeb"></path><path d="M341.05,172.84s7.12-.77,6.55-5.1-27.68-15.5-43.67,2.55c0,0,10.24,17.59,25,17.82S341.05,172.84,341.05,172.84Z" style="fill:#ebebeb"></path><path d="M354.32,162.31s-6.45,3.11-8.26-.87,15.3-27.79,38.41-20.93c0,0,.62,20.34-11.82,28.36S354.32,162.31,354.32,162.31Z" style="fill:#ebebeb"></path><path d="M320.61,230s4.91-4-.39-5.9-31.32-1.39-31.59,24.38c0,0,30.3,5,34.05-4.78S320.61,230,320.61,230Z" style="fill:#ebebeb"></path><path d="M382.41,172.19s-4.92-4,.38-5.9,31.33-1.39,31.6,24.39c0,0-30.31,5-34.06-4.79S382.41,172.19,382.41,172.19Z" style="fill:#ebebeb"></path><path d="M366.38,193s-.43-4.82,3.47-2.93,17.45,16.53,3.39,30.41c0,0-18.92-14-15.51-21.32S366.38,193,366.38,193Z" style="fill:#ebebeb"></path><path d="M316.22,199.83s2.93-3.85-1.37-4.33-23.58,4.67-19.09,23.91c0,0,23.49-1.76,24.49-9.76S316.22,199.83,316.22,199.83Z" style="fill:#ebebeb"></path><polygon points="395.56 379.82 314.98 379.82 306.28 291.59 404.26 291.59 395.56 379.82" style="fill:#f0f0f0"></polygon><rect x="301.98" y="281.85" width="106.58" height="19.47" style="fill:#e6e6e6"></rect><rect x="72.32" y="127.3" width="176.16" height="252.52" transform="translate(320.79 507.12) rotate(180)" style="fill:#e0e0e0"></rect><rect x="131.9" y="127.3" width="143.18" height="252.52" transform="translate(406.99 507.12) rotate(180)" style="fill:#e6e6e6"></rect><rect x="88.2" y="192.94" width="230.58" height="121.25" transform="translate(-50.06 457.05) rotate(-90)" style="fill:#e0e0e0"></rect><rect x="85.59" y="195.55" width="230.58" height="116.01" transform="translate(-52.68 454.44) rotate(-90)" style="fill:#f5f5f5"></rect><polygon points="228.01 177.41 210.44 177.41 210.44 159.84 196.55 159.84 196.55 177.41 178.98 177.41 178.98 191.3 196.55 191.3 196.55 208.87 210.44 208.87 210.44 191.3 228.01 191.3 228.01 177.41" style="fill:#e0e0e0"></polygon><path d="M155.33,228.54h-6.25v13c8.24,1.79,8,17.74,0,19.93v13h6.25A60.08,60.08,0,0,0,155.33,228.54Z" style="fill:#e0e0e0"></path><path d="M163.25,274.53h-10a60.08,60.08,0,0,0,0-46h10A60.08,60.08,0,0,1,163.25,274.53Z" style="fill:#e6e6e6"></path></g><g id="freepik--Shadow--inject-243"><ellipse id="freepik--path--inject-243" cx="250" cy="416.24" rx="193.89" ry="11.32" style="fill:#f5f5f5"></ellipse></g><g id="freepik--thremometer-3--inject-243"><path d="M416.68,152.53,386.06,260a64.62,64.62,0,0,1-6.21,14.68,65.53,65.53,0,0,1-9.6,12.73A56.07,56.07,0,0,0,356.62,311l-16.47,57.83A5.79,5.79,0,0,1,329,365.68l16.47-57.82a56,56,0,0,0,.87-27.26,64.9,64.9,0,0,1,1-31.63L378,141.51a9,9,0,0,1,11.11-6.18l21.41,6.1A9,9,0,0,1,416.68,152.53Z" style="fill:#3378FF"></path><path d="M345.7,349.37l-5.55,19.49A5.79,5.79,0,0,1,329,365.68l5.55-19.48Z" style="fill:#263238"></path><path d="M345.7,349.37l-5.55,19.49A5.79,5.79,0,0,1,329,365.68l5.55-19.48Z" style="fill:#fff;opacity:0.5"></path><rect x="367.67" y="180.2" width="20.43" height="70.15" rx="3.1" transform="translate(73.43 -95.29) rotate(15.9)" style="fill:#fff;opacity:0.5"></rect><rect x="344.59" y="206.85" width="66.58" height="16.86" rx="1.32" transform="translate(688.44 -89.17) rotate(105.9)" style="fill:#fff;opacity:0.5"></rect><polygon points="378.72 210.05 375.98 209.27 375.65 208.68 376.25 208.34 378.97 209.12 379.31 209.72 378.72 210.05" style="fill:#3378FF"></polygon><polygon points="382.66 211.18 379.92 210.4 379.59 209.8 380.2 209.46 382.92 210.24 383.25 210.85 382.66 211.18" style="fill:#3378FF"></polygon><polygon points="377.58 214.05 374.84 213.27 374.51 212.67 375.12 212.34 377.84 213.11 378.17 213.72 377.58 214.05" style="fill:#3378FF"></polygon><polygon points="381.52 215.17 378.78 214.39 378.45 213.8 379.06 213.46 381.78 214.23 382.12 214.84 381.52 215.17" style="fill:#3378FF"></polygon><polygon points="382 214.13 382.79 211.39 383.38 211.06 383.72 211.66 382.94 214.38 382.34 214.72 382 214.13" style="fill:#3378FF"></polygon><polygon points="378.02 212.99 378.81 210.25 379.4 209.92 379.74 210.53 378.96 213.25 378.36 213.59 378.02 212.99" style="fill:#3378FF"></polygon><polygon points="374.05 211.86 374.82 209.12 375.42 208.79 375.76 209.39 374.98 212.12 374.38 212.45 374.05 211.86" style="fill:#3378FF"></polygon><polygon points="377.01 216.05 374.27 215.27 373.94 214.68 374.54 214.34 377.26 215.12 377.6 215.72 377.01 216.05" style="fill:#3378FF"></polygon><polygon points="380.95 217.18 378.21 216.4 377.88 215.8 378.49 215.46 381.21 216.24 381.55 216.84 380.95 217.18" style="fill:#3378FF"></polygon><polygon points="375.87 220.05 373.13 219.27 372.8 218.67 373.41 218.34 376.13 219.11 376.46 219.72 375.87 220.05" style="fill:#3378FF"></polygon><polygon points="379.81 221.17 377.07 220.39 376.74 219.8 377.35 219.46 380.07 220.23 380.41 220.84 379.81 221.17" style="fill:#3378FF"></polygon><polygon points="380.3 220.12 381.08 217.39 381.67 217.06 382.01 217.66 381.23 220.38 380.63 220.72 380.3 220.12" style="fill:#3378FF"></polygon><polygon points="376.32 218.99 377.1 216.25 377.69 215.92 378.03 216.53 377.25 219.25 376.65 219.59 376.32 218.99" style="fill:#3378FF"></polygon><polygon points="372.34 217.86 373.12 215.12 373.71 214.79 374.05 215.39 373.27 218.12 372.67 218.45 372.34 217.86" style="fill:#3378FF"></polygon><polygon points="375.3 222.05 372.56 221.27 372.23 220.68 372.83 220.34 375.56 221.12 375.89 221.72 375.3 222.05" style="fill:#3378FF"></polygon><polygon points="379.24 223.18 376.5 222.4 376.17 221.8 376.78 221.46 379.5 222.24 379.84 222.84 379.24 223.18" style="fill:#3378FF"></polygon><polygon points="374.16 226.05 371.42 225.27 371.09 224.67 371.7 224.34 374.42 225.11 374.76 225.72 374.16 226.05" style="fill:#3378FF"></polygon><polygon points="378.1 227.17 375.37 226.39 375.03 225.8 375.64 225.46 378.36 226.23 378.7 226.84 378.1 227.17" style="fill:#3378FF"></polygon><polygon points="378.59 226.12 379.37 223.39 379.96 223.05 380.3 223.66 379.52 226.38 378.92 226.72 378.59 226.12" style="fill:#3378FF"></polygon><polygon points="374.61 224.99 375.39 222.25 375.98 221.92 376.32 222.53 375.55 225.25 374.94 225.59 374.61 224.99" style="fill:#3378FF"></polygon><polygon points="370.63 223.86 371.41 221.12 372 220.79 372.34 221.39 371.56 224.11 370.96 224.45 370.63 223.86" style="fill:#3378FF"></polygon><polygon points="373.59 228.05 370.85 227.27 370.52 226.68 371.13 226.34 373.85 227.11 374.19 227.72 373.59 228.05" style="fill:#3378FF"></polygon><polygon points="377.53 229.18 374.79 228.4 374.46 227.8 375.07 227.46 377.79 228.24 378.13 228.84 377.53 229.18" style="fill:#3378FF"></polygon><polygon points="372.45 232.05 369.71 231.27 369.38 230.67 369.99 230.33 372.71 231.11 373.05 231.72 372.45 232.05" style="fill:#3378FF"></polygon><polygon points="376.39 233.17 373.66 232.39 373.32 231.79 373.93 231.46 376.65 232.23 376.99 232.84 376.39 233.17" style="fill:#3378FF"></polygon><polygon points="376.88 232.12 377.66 229.38 378.25 229.05 378.59 229.66 377.82 232.38 377.21 232.72 376.88 232.12" style="fill:#3378FF"></polygon><polygon points="372.9 230.99 373.68 228.25 374.27 227.92 374.61 228.53 373.84 231.25 373.23 231.59 372.9 230.99" style="fill:#3378FF"></polygon><polygon points="368.92 229.85 369.7 227.12 370.29 226.79 370.63 227.39 369.86 230.11 369.25 230.45 368.92 229.85" style="fill:#3378FF"></polygon><polygon points="371.88 234.05 369.14 233.27 368.81 232.68 369.42 232.34 372.14 233.11 372.48 233.72 371.88 234.05" style="fill:#3378FF"></polygon><polygon points="375.82 235.18 373.08 234.4 372.75 233.8 373.36 233.46 376.08 234.24 376.42 234.84 375.82 235.18" style="fill:#3378FF"></polygon><polygon points="370.74 238.05 368 237.27 367.67 236.67 368.28 236.33 371 237.11 371.34 237.72 370.74 238.05" style="fill:#3378FF"></polygon><polygon points="374.69 239.17 371.95 238.39 371.62 237.79 372.22 237.46 374.94 238.23 375.28 238.84 374.69 239.17" style="fill:#3378FF"></polygon><polygon points="375.17 238.12 375.95 235.38 376.55 235.05 376.88 235.66 376.11 238.38 375.5 238.72 375.17 238.12" style="fill:#3378FF"></polygon><polygon points="371.19 236.99 371.97 234.25 372.56 233.92 372.9 234.53 372.13 237.25 371.52 237.58 371.19 236.99" style="fill:#3378FF"></polygon><polygon points="367.21 235.85 367.99 233.12 368.58 232.78 368.92 233.39 368.15 236.11 367.54 236.45 367.21 235.85" style="fill:#3378FF"></polygon><path d="M416.68,152.53l-4.39,15.41-7.82-2.23.06-.17A12,12,0,0,0,381.45,159c0,.06,0,.12,0,.19l-7.83-2.23L378,141.51a9,9,0,0,1,11.11-6.18l21.41,6.1A9,9,0,0,1,416.68,152.53Z" style="fill:#fff;opacity:0.5"></path><path d="M395.54,153.28A9.32,9.32,0,1,0,402,164.8,9.32,9.32,0,0,0,395.54,153.28Zm-4.62,16.21a7.53,7.53,0,1,1,9.31-5.18A7.54,7.54,0,0,1,390.92,169.49Z" style="isolation:isolate;opacity:0.2"></path><path d="M398.26,160.17c-.52,1.83-2.88,2.76-5.27,2.08s-3.91-2.72-3.39-4.55,2.88-2.76,5.27-2.08S398.78,158.34,398.26,160.17Z" style="fill:#fff;opacity:0.1"></path><path d="M416.67,152.53,386.06,260a64.62,64.62,0,0,1-6.21,14.68,65.53,65.53,0,0,1-9.6,12.73A56.07,56.07,0,0,0,356.62,311l-16.47,57.83a5.78,5.78,0,0,1-11.16-.14,5.38,5.38,0,0,0,1.3.56,5.79,5.79,0,0,0,7.16-4l16.47-57.82a56.1,56.1,0,0,1,13.63-23.63,65.47,65.47,0,0,0,9.6-12.72,64.7,64.7,0,0,0,6.21-14.69L414,149a8.92,8.92,0,0,0-.36-6A9,9,0,0,1,416.67,152.53Z" style="isolation:isolate;opacity:0.2"></path><path d="M332.22,364.88h0a1.32,1.32,0,0,1-.91-1.64l3.08-10.82a1.33,1.33,0,0,1,1.64-.91h0a1.33,1.33,0,0,1,.91,1.64L333.85,364A1.32,1.32,0,0,1,332.22,364.88Z" style="fill:#fff;opacity:0.2"></path><path d="M376.92,152.43l2.61-9.17a8.65,8.65,0,0,1,10.68-5.95l15.71,4.48a1.59,1.59,0,0,1,1.09,2h0a1.59,1.59,0,0,1-1.67,1.15c-4.57-.38-19.89-.86-25.25,8.8a1.57,1.57,0,0,1-1.82.76l-.25-.07A1.59,1.59,0,0,1,376.92,152.43Z" style="fill:#fff;opacity:0.2"></path></g><g id="freepik--thremometer-2--inject-243"><path d="M348.77,375.3,269.08,224.22a26.54,26.54,0,0,1-3-11.2,26.42,26.42,0,0,0-3-11.17l-19.89-37.71a4.55,4.55,0,0,1,1.89-6.11,4.53,4.53,0,0,1,6.12,1.89l19.88,37.7a26.28,26.28,0,0,0,7.53,8.8,26.45,26.45,0,0,1,7.53,8.82l79.68,151.08a9.62,9.62,0,1,1-17,9Z" style="fill:#3378FF"></path><path d="M348.77,375.3,269.08,224.22a26.54,26.54,0,0,1-3-11.2,26.42,26.42,0,0,0-3-11.17l-19.89-37.71a4.55,4.55,0,0,1,1.89-6.11,4.53,4.53,0,0,1,6.12,1.89l19.88,37.7a26.28,26.28,0,0,0,7.53,8.8,26.45,26.45,0,0,1,7.53,8.82l79.68,151.08a9.62,9.62,0,1,1-17,9Z" style="fill:#fff;opacity:0.5"></path><rect x="307.79" y="206.37" width="11.88" height="163.75" transform="translate(725.71 396.86) rotate(152.19)" style="fill:#fff;opacity:0.5"></rect><path d="M346.33,360.49a.54.54,0,0,1-.47-.29.53.53,0,0,1,.22-.72l8.17-4.31a.54.54,0,0,1,.5.95l-8.17,4.31A.54.54,0,0,1,346.33,360.49Z" style="fill:#263238"></path><path d="M346.16,358a.27.27,0,0,1-.12-.51l6.57-3.46a.27.27,0,0,1,.25.47l-6.57,3.47A.31.31,0,0,1,346.16,358Z" style="fill:#263238"></path><path d="M345.19,356.12a.27.27,0,0,1-.12-.51l6.57-3.46a.27.27,0,1,1,.25.47l-6.57,3.47A.31.31,0,0,1,345.19,356.12Z" style="fill:#263238"></path><path d="M344.22,354.28a.27.27,0,0,1-.24-.14.26.26,0,0,1,.12-.36l6.57-3.47a.27.27,0,0,1,.36.11.28.28,0,0,1-.11.37l-6.57,3.46A.31.31,0,0,1,344.22,354.28Z" style="fill:#263238"></path><path d="M343.25,352.44a.27.27,0,0,1-.24-.14.26.26,0,0,1,.12-.36l6.57-3.47a.27.27,0,0,1,.36.11.28.28,0,0,1-.11.37l-6.57,3.46A.31.31,0,0,1,343.25,352.44Z" style="fill:#263238"></path><path d="M341.48,351.29A.51.51,0,0,1,341,351a.53.53,0,0,1,.22-.72L349.4,346a.54.54,0,0,1,.72.23.53.53,0,0,1-.22.72l-8.17,4.31A.54.54,0,0,1,341.48,351.29Z" style="fill:#263238"></path><path d="M341.31,348.76a.27.27,0,0,1-.24-.14.26.26,0,0,1,.12-.36l6.56-3.47a.28.28,0,0,1,.37.11.27.27,0,0,1-.12.37l-6.56,3.46A.31.31,0,0,1,341.31,348.76Z" style="fill:#263238"></path><path d="M340.34,346.92a.27.27,0,0,1-.24-.14.26.26,0,0,1,.12-.36l6.56-3.47a.28.28,0,0,1,.37.11.27.27,0,0,1-.12.37l-6.56,3.46A.31.31,0,0,1,340.34,346.92Z" style="fill:#263238"></path><path d="M339.37,345.08a.27.27,0,0,1-.24-.14.26.26,0,0,1,.12-.36l6.56-3.47a.28.28,0,0,1,.37.12.26.26,0,0,1-.12.36l-6.56,3.46A.31.31,0,0,1,339.37,345.08Z" style="fill:#263238"></path><path d="M338.4,343.24a.27.27,0,0,1-.24-.14.27.27,0,0,1,.11-.36l6.57-3.47a.28.28,0,0,1,.37.12.26.26,0,0,1-.12.36l-6.57,3.46A.24.24,0,0,1,338.4,343.24Z" style="fill:#263238"></path><path d="M336.63,342.09a.52.52,0,0,1-.47-.28.54.54,0,0,1,.22-.73l8.17-4.3a.53.53,0,0,1,.72.22.54.54,0,0,1-.22.73l-8.17,4.3A.54.54,0,0,1,336.63,342.09Z" style="fill:#263238"></path><path d="M336.46,339.57a.28.28,0,0,1-.24-.15.27.27,0,0,1,.11-.36l6.57-3.47a.29.29,0,0,1,.37.12.26.26,0,0,1-.12.36l-6.57,3.46A.28.28,0,0,1,336.46,339.57Z" style="fill:#263238"></path><path d="M335.49,337.73a.28.28,0,0,1-.24-.15.27.27,0,0,1,.11-.36l6.57-3.46a.28.28,0,0,1,.37.11.26.26,0,0,1-.12.36l-6.57,3.46A.28.28,0,0,1,335.49,337.73Z" style="fill:#263238"></path><path d="M334.52,335.89a.28.28,0,0,1-.24-.15.27.27,0,0,1,.11-.36l6.57-3.46a.28.28,0,0,1,.37.11.26.26,0,0,1-.12.36l-6.57,3.47Z" style="fill:#263238"></path><path d="M333.55,334.05a.28.28,0,0,1-.24-.15.27.27,0,0,1,.11-.36l6.57-3.46a.28.28,0,0,1,.37.11.27.27,0,0,1-.12.36L333.67,334A.27.27,0,0,1,333.55,334.05Z" style="fill:#263238"></path><path d="M331.78,332.9a.54.54,0,0,1-.25-1l8.17-4.31a.53.53,0,0,1,.72.22.54.54,0,0,1-.22.73l-8.17,4.3A.45.45,0,0,1,331.78,332.9Z" style="fill:#263238"></path><path d="M331.61,330.37a.26.26,0,0,1-.24-.15.27.27,0,0,1,.11-.36l6.57-3.46a.27.27,0,1,1,.25.47l-6.57,3.47A.27.27,0,0,1,331.61,330.37Z" style="fill:#263238"></path><path d="M330.64,328.53a.27.27,0,0,1-.24-.14.27.27,0,0,1,.11-.37l6.57-3.46a.27.27,0,1,1,.25.47l-6.57,3.47Z" style="fill:#263238"></path><path d="M329.67,326.69a.27.27,0,0,1-.24-.14.28.28,0,0,1,.11-.37l6.57-3.46a.27.27,0,1,1,.25.47l-6.57,3.47Z" style="fill:#263238"></path><path d="M328.7,324.85a.27.27,0,0,1-.24-.14.28.28,0,0,1,.11-.37l6.57-3.46a.27.27,0,1,1,.25.47l-6.57,3.47Z" style="fill:#263238"></path><path d="M326.93,323.7a.51.51,0,0,1-.47-.29.53.53,0,0,1,.22-.72l8.16-4.31a.54.54,0,0,1,.73.23.53.53,0,0,1-.22.72l-8.17,4.31A.54.54,0,0,1,326.93,323.7Z" style="fill:#263238"></path><path d="M326.76,321.17a.27.27,0,0,1-.24-.14.26.26,0,0,1,.11-.36l6.57-3.47a.27.27,0,1,1,.25.47l-6.57,3.47A.27.27,0,0,1,326.76,321.17Z" style="fill:#263238"></path><path d="M325.79,319.33a.27.27,0,0,1-.24-.14.27.27,0,0,1,.11-.36l6.57-3.47a.27.27,0,0,1,.36.11.28.28,0,0,1-.11.37l-6.57,3.46Z" style="fill:#263238"></path><path d="M324.82,317.49a.27.27,0,0,1-.24-.14.27.27,0,0,1,.11-.36l6.57-3.47a.27.27,0,0,1,.36.11.28.28,0,0,1-.11.37l-6.57,3.46A.27.27,0,0,1,324.82,317.49Z" style="fill:#263238"></path><path d="M323.85,315.65a.27.27,0,0,1-.24-.14.27.27,0,0,1,.11-.36l6.57-3.47a.27.27,0,0,1,.36.11.28.28,0,0,1-.11.37L324,315.62Z" style="fill:#263238"></path><path d="M322.08,314.5a.53.53,0,0,1-.25-1l8.16-4.31a.55.55,0,0,1,.73.23.53.53,0,0,1-.22.72l-8.17,4.31A.57.57,0,0,1,322.08,314.5Z" style="fill:#263238"></path><path d="M321.91,312a.27.27,0,0,1-.24-.14.27.27,0,0,1,.11-.36l6.57-3.47a.26.26,0,0,1,.36.12.27.27,0,0,1-.11.36L322,311.94Z" style="fill:#263238"></path><path d="M320.94,310.13a.27.27,0,0,1-.24-.14.27.27,0,0,1,.11-.36l6.57-3.47a.28.28,0,0,1,.36.12.27.27,0,0,1-.11.36l-6.57,3.46Z" style="fill:#263238"></path><path d="M320,308.29a.27.27,0,0,1-.24-.14.27.27,0,0,1,.11-.36l6.57-3.47a.28.28,0,0,1,.36.12.27.27,0,0,1-.11.36l-6.57,3.46Z" style="fill:#263238"></path><path d="M319,306.46a.28.28,0,0,1-.24-.15.27.27,0,0,1,.11-.36l6.57-3.47a.27.27,0,0,1,.36.12.27.27,0,0,1-.11.36l-6.57,3.46A.28.28,0,0,1,319,306.46Z" style="fill:#263238"></path><path d="M317.23,305.3a.53.53,0,0,1-.25-1l8.16-4.3a.54.54,0,1,1,.5.95l-8.16,4.3A.46.46,0,0,1,317.23,305.3Z" style="fill:#263238"></path><path d="M317.06,302.78a.28.28,0,0,1-.24-.15.27.27,0,0,1,.11-.36l6.57-3.46a.27.27,0,0,1,.25.47l-6.57,3.47Z" style="fill:#263238"></path><path d="M316.09,300.94a.28.28,0,0,1-.24-.15.27.27,0,0,1,.11-.36l6.57-3.46a.27.27,0,1,1,.25.47l-6.57,3.47Z" style="fill:#263238"></path><path d="M315.12,299.1a.28.28,0,0,1-.24-.15.27.27,0,0,1,.11-.36l6.57-3.46a.27.27,0,0,1,.25.47l-6.57,3.47Z" style="fill:#263238"></path><path d="M314.15,297.26a.26.26,0,0,1-.24-.15.27.27,0,0,1,.11-.36l6.57-3.46a.27.27,0,1,1,.25.47l-6.57,3.47Z" style="fill:#263238"></path><path d="M312.38,296.11a.56.56,0,0,1-.48-.29.54.54,0,0,1,.23-.72l8.16-4.31a.54.54,0,1,1,.5.95l-8.16,4.31A.57.57,0,0,1,312.38,296.11Z" style="fill:#263238"></path><path d="M312.21,293.58a.27.27,0,0,1-.24-.14.27.27,0,0,1,.11-.37l6.57-3.46a.27.27,0,0,1,.25.47l-6.57,3.47Z" style="fill:#263238"></path><path d="M311.24,291.74a.27.27,0,0,1-.24-.14.28.28,0,0,1,.11-.37l6.57-3.46a.27.27,0,1,1,.25.47l-6.57,3.47A.27.27,0,0,1,311.24,291.74Z" style="fill:#263238"></path><path d="M310.27,289.9a.27.27,0,0,1-.24-.14.28.28,0,0,1,.11-.37l6.57-3.46a.27.27,0,0,1,.25.47l-6.57,3.47Z" style="fill:#263238"></path><path d="M309.3,288.06a.27.27,0,0,1-.24-.14.26.26,0,0,1,.11-.36l6.57-3.47a.27.27,0,0,1,.36.11.28.28,0,0,1-.11.37L309.42,288A.27.27,0,0,1,309.3,288.06Z" style="fill:#263238"></path><path d="M307.53,286.91a.53.53,0,0,1-.25-1l8.16-4.31a.54.54,0,0,1,.73.23.53.53,0,0,1-.23.72l-8.16,4.31A.57.57,0,0,1,307.53,286.91Z" style="fill:#263238"></path><path d="M307.35,284.38a.27.27,0,0,1-.12-.5l6.57-3.47a.27.27,0,0,1,.36.11.28.28,0,0,1-.11.37l-6.57,3.46A.28.28,0,0,1,307.35,284.38Z" style="fill:#263238"></path><path d="M306.38,282.54a.27.27,0,0,1-.12-.5l6.57-3.47a.27.27,0,0,1,.36.11.27.27,0,0,1-.11.37l-6.57,3.46A.28.28,0,0,1,306.38,282.54Z" style="fill:#263238"></path><path d="M305.41,280.7a.27.27,0,0,1-.12-.5l6.57-3.47a.27.27,0,0,1,.25.48l-6.57,3.46A.28.28,0,0,1,305.41,280.7Z" style="fill:#263238"></path><path d="M304.44,278.86a.27.27,0,0,1-.12-.5l6.57-3.47a.28.28,0,0,1,.36.12.27.27,0,0,1-.11.36l-6.57,3.46A.28.28,0,0,1,304.44,278.86Z" style="fill:#263238"></path><path d="M302.68,277.71a.53.53,0,0,1-.25-1l8.16-4.3a.53.53,0,1,1,.5.94l-8.16,4.31A.57.57,0,0,1,302.68,277.71Z" style="fill:#263238"></path><path d="M302.5,275.18a.27.27,0,0,1-.12-.5l6.57-3.47a.27.27,0,0,1,.36.12.27.27,0,0,1-.11.36l-6.57,3.46A.28.28,0,0,1,302.5,275.18Z" style="fill:#263238"></path><path d="M301.53,273.35a.28.28,0,0,1-.23-.15.27.27,0,0,1,.11-.36l6.57-3.46a.27.27,0,0,1,.25.47l-6.57,3.46A.28.28,0,0,1,301.53,273.35Z" style="fill:#263238"></path><path d="M300.56,271.51a.28.28,0,0,1-.23-.15.27.27,0,0,1,.11-.36l6.57-3.46a.27.27,0,1,1,.25.47l-6.57,3.46A.2.2,0,0,1,300.56,271.51Z" style="fill:#263238"></path><path d="M299.59,269.67a.27.27,0,0,1-.12-.51L306,265.7a.27.27,0,0,1,.25.47l-6.57,3.47A.28.28,0,0,1,299.59,269.67Z" style="fill:#263238"></path><path d="M297.83,268.52a.55.55,0,0,1-.48-.29.54.54,0,0,1,.23-.73l8.16-4.3a.54.54,0,0,1,.73.22.56.56,0,0,1-.23.73l-8.16,4.3A.47.47,0,0,1,297.83,268.52Z" style="fill:#263238"></path><path d="M297.65,266a.27.27,0,0,1-.12-.51L304.1,262a.27.27,0,0,1,.25.47L297.78,266A.28.28,0,0,1,297.65,266Z" style="fill:#263238"></path><path d="M296.68,264.15a.25.25,0,0,1-.23-.15.27.27,0,0,1,.11-.36l6.57-3.46a.27.27,0,0,1,.25.47l-6.57,3.47A.28.28,0,0,1,296.68,264.15Z" style="fill:#263238"></path><path d="M295.71,262.31a.25.25,0,0,1-.23-.14.27.27,0,0,1,.11-.37l6.57-3.46a.27.27,0,0,1,.25.47l-6.57,3.47A.28.28,0,0,1,295.71,262.31Z" style="fill:#263238"></path><path d="M294.74,260.47a.25.25,0,0,1-.23-.14.28.28,0,0,1,.11-.37l6.57-3.46a.27.27,0,1,1,.25.47l-6.57,3.47A.28.28,0,0,1,294.74,260.47Z" style="fill:#263238"></path><path d="M293,259.32a.55.55,0,0,1-.48-.29.53.53,0,0,1,.22-.72l8.17-4.31a.52.52,0,0,1,.72.23.53.53,0,0,1-.22.72l-8.16,4.31A.57.57,0,0,1,293,259.32Z" style="fill:#263238"></path><path d="M292.8,256.79a.25.25,0,0,1-.23-.14.26.26,0,0,1,.11-.36l6.57-3.47a.27.27,0,0,1,.25.47l-6.57,3.47A.28.28,0,0,1,292.8,256.79Z" style="fill:#263238"></path><path d="M291.83,255a.25.25,0,0,1-.23-.14.26.26,0,0,1,.11-.36l6.57-3.47a.27.27,0,0,1,.36.11.28.28,0,0,1-.11.37L292,254.92A.28.28,0,0,1,291.83,255Z" style="fill:#263238"></path><path d="M290.86,253.11a.28.28,0,0,1-.24-.14.28.28,0,0,1,.12-.36l6.57-3.47a.27.27,0,0,1,.36.11.28.28,0,0,1-.11.37L291,253.08A.31.31,0,0,1,290.86,253.11Z" style="fill:#263238"></path><path d="M289.89,251.27a.26.26,0,0,1-.12-.5l6.57-3.47a.27.27,0,0,1,.36.11.28.28,0,0,1-.11.37L290,251.24A.31.31,0,0,1,289.89,251.27Z" style="fill:#263238"></path><path d="M288.12,250.12a.53.53,0,0,1-.47-.29.53.53,0,0,1,.22-.72L296,244.8a.54.54,0,0,1,.72.23.53.53,0,0,1-.22.72l-8.16,4.31A.62.62,0,0,1,288.12,250.12Z" style="fill:#263238"></path><path d="M288,247.59a.26.26,0,0,1-.12-.5l6.57-3.47a.26.26,0,0,1,.36.12.27.27,0,0,1-.11.36l-6.57,3.46A.31.31,0,0,1,288,247.59Z" style="fill:#263238"></path><path d="M287,245.75a.26.26,0,0,1-.12-.5l6.57-3.47a.27.27,0,0,1,.25.48l-6.57,3.46A.31.31,0,0,1,287,245.75Z" style="fill:#263238"></path><path d="M286,243.91a.26.26,0,0,1-.12-.5l6.57-3.47a.27.27,0,0,1,.36.12.27.27,0,0,1-.11.36l-6.57,3.46A.31.31,0,0,1,286,243.91Z" style="fill:#263238"></path><path d="M285,242.08a.29.29,0,0,1-.24-.15.28.28,0,0,1,.12-.36l6.57-3.47a.28.28,0,0,1,.36.12.27.27,0,0,1-.11.36L285.17,242A.33.33,0,0,1,285,242.08Z" style="fill:#263238"></path><path d="M283.27,240.92a.53.53,0,0,1-.47-.28.54.54,0,0,1,.22-.73l8.17-4.3a.53.53,0,0,1,.72.22.54.54,0,0,1-.22.73l-8.17,4.3A.54.54,0,0,1,283.27,240.92Z" style="fill:#263238"></path><path d="M283.1,238.4a.28.28,0,0,1-.24-.15.26.26,0,0,1,.12-.36l6.57-3.46a.27.27,0,0,1,.25.47l-6.57,3.47A.31.31,0,0,1,283.1,238.4Z" style="fill:#263238"></path><path d="M282.13,236.56a.28.28,0,0,1-.24-.15.26.26,0,0,1,.12-.36l6.57-3.46a.27.27,0,0,1,.25.47l-6.57,3.47A.31.31,0,0,1,282.13,236.56Z" style="fill:#263238"></path><path d="M281.16,234.72a.28.28,0,0,1-.24-.15.26.26,0,0,1,.12-.36l6.57-3.46a.27.27,0,0,1,.25.47l-6.57,3.47A.31.31,0,0,1,281.16,234.72Z" style="fill:#263238"></path><path d="M280.19,232.88a.27.27,0,0,1-.12-.51l6.57-3.46a.27.27,0,0,1,.25.47l-6.57,3.47A.31.31,0,0,1,280.19,232.88Z" style="fill:#263238"></path><path d="M278.42,231.73a.54.54,0,0,1-.25-1l8.17-4.31a.53.53,0,0,1,.72.22.54.54,0,0,1-.22.73l-8.17,4.31A.54.54,0,0,1,278.42,231.73Z" style="fill:#263238"></path><path d="M278.25,229.2a.27.27,0,0,1-.12-.51l6.56-3.46a.28.28,0,0,1,.37.11.26.26,0,0,1-.12.36l-6.56,3.47A.31.31,0,0,1,278.25,229.2Z" style="fill:#263238"></path><path d="M277.28,227.36a.27.27,0,0,1-.12-.51l6.56-3.46a.28.28,0,0,1,.37.11.26.26,0,0,1-.12.36l-6.56,3.47A.31.31,0,0,1,277.28,227.36Z" style="fill:#263238"></path><path d="M276.31,225.52a.27.27,0,0,1-.12-.51l6.56-3.46a.28.28,0,0,1,.37.11.26.26,0,0,1-.12.36l-6.56,3.47A.31.31,0,0,1,276.31,225.52Z" style="fill:#263238"></path><path d="M275.34,223.68a.27.27,0,0,1-.24-.14.28.28,0,0,1,.11-.37l6.57-3.46a.28.28,0,0,1,.37.11.26.26,0,0,1-.12.36l-6.57,3.47A.24.24,0,0,1,275.34,223.68Z" style="fill:#263238"></path><path d="M273.57,222.53a.51.51,0,0,1-.47-.29.53.53,0,0,1,.22-.72l8.17-4.31a.54.54,0,0,1,.5.95l-8.17,4.31A.54.54,0,0,1,273.57,222.53Z" style="fill:#263238"></path><path d="M251.58,170.41h0a1.7,1.7,0,0,1,2.3.71L356.69,366.06a1.69,1.69,0,0,1-.71,2.29h0a1.69,1.69,0,0,1-2.29-.71L250.87,172.7A1.7,1.7,0,0,1,251.58,170.41Z" style="opacity:0.2"></path><path d="M246.58,160.92h0a1.69,1.69,0,0,1,2.29.71l67.78,128.51a1.69,1.69,0,0,1-.71,2.29h0a1.69,1.69,0,0,1-2.29-.71L245.87,163.21A1.69,1.69,0,0,1,246.58,160.92Z" style="fill:#3378FF"></path><path d="M255.05,186.69l-11.89-22.55a4.55,4.55,0,0,1,1.89-6.11,4.53,4.53,0,0,1,6.12,1.89l11.89,22.55Z" style="fill:#263238"></path><path d="M255.05,186.69l-11.89-22.55a4.55,4.55,0,0,1,1.89-6.11,4.53,4.53,0,0,1,6.12,1.89l11.89,22.55Z" style="fill:#fff;opacity:0.2"></path><g style="opacity:0.2"><path d="M257.06,177.41a1.52,1.52,0,0,1-1.64-.76l-8.51-15.84a1.5,1.5,0,0,1,2.64-1.42l8.52,15.84a1.51,1.51,0,0,1-1,2.18Z" style="fill:#fff"></path></g><g style="opacity:0.2"><path d="M361.54,367.78a1.51,1.51,0,0,1-1.66-.76L282,220.25a27.41,27.41,0,0,0-5.74-7.41,30.62,30.62,0,0,1-6.41-8.29l-9.34-17.71a1.5,1.5,0,1,1,2.65-1.4l9.35,17.71a27.49,27.49,0,0,0,5.77,7.48,30.16,30.16,0,0,1,6.37,8.22l77.92,146.76a1.5,1.5,0,0,1-.62,2A1.86,1.86,0,0,1,361.54,367.78Z" style="fill:#fff"></path></g></g><g id="freepik--Mug--inject-243"><path d="M394.65,303.54V410a4.65,4.65,0,0,1-4.65,4.64H300.39a4.64,4.64,0,0,1-4.64-4.64V303.54Z" style="fill:#263238"></path><g style="isolation:isolate;opacity:0.2"><path d="M394.65,405.18v1.75a53.9,53.9,0,0,1-16.79,2.47c-14.64,0-29.81-4.63-42.3-8.45-8.58-2.62-16-4.89-20.86-4.89a44.53,44.53,0,0,0-18.95,4v-1.86a46.24,46.24,0,0,1,18.95-3.83c5.11,0,12.63,2.3,21.34,5C353.35,404.66,375.9,411.55,394.65,405.18Z"></path><path d="M394.65,399.82v1.75A53.9,53.9,0,0,1,377.86,404c-14.64,0-29.81-4.63-42.3-8.46-8.58-2.61-16-4.89-20.86-4.89a44.36,44.36,0,0,0-18.95,4.05v-1.86A46.22,46.22,0,0,1,314.7,389c5.11,0,12.63,2.31,21.34,5C353.35,399.29,375.9,406.19,394.65,399.82Z"></path><path d="M394.65,394.46v1.74a53.91,53.91,0,0,1-16.79,2.48c-14.64,0-29.81-4.64-42.3-8.46-8.58-2.62-16-4.89-20.86-4.89a44.36,44.36,0,0,0-18.95,4.05v-1.86a46.22,46.22,0,0,1,18.95-3.84c5.11,0,12.63,2.31,21.34,5C353.35,393.93,375.9,400.83,394.65,394.46Z"></path><path d="M394.65,389.1v1.74a53.91,53.91,0,0,1-16.79,2.48c-14.64,0-29.81-4.64-42.3-8.46-8.58-2.62-16-4.89-20.86-4.89a44.36,44.36,0,0,0-18.95,4v-1.86a46.22,46.22,0,0,1,18.95-3.84c5.11,0,12.63,2.3,21.34,5C353.35,388.57,375.9,395.46,394.65,389.1Z"></path><path d="M394.65,383.74v1.74A53.91,53.91,0,0,1,377.86,388c-14.64,0-29.81-4.64-42.3-8.46-8.58-2.63-16-4.89-20.86-4.89a44.38,44.38,0,0,0-18.95,4V376.8A46.22,46.22,0,0,1,314.7,373c5.11,0,12.63,2.3,21.34,5C353.35,383.21,375.9,390.1,394.65,383.74Z"></path><path d="M394.65,378.38v1.74a53.9,53.9,0,0,1-16.79,2.47c-14.64,0-29.81-4.63-42.3-8.45-8.58-2.63-16-4.89-20.86-4.89a44.53,44.53,0,0,0-18.95,4v-1.86a46.24,46.24,0,0,1,18.95-3.83c5.11,0,12.63,2.29,21.34,4.95C353.35,377.85,375.9,384.74,394.65,378.38Z"></path><path d="M394.65,373v1.75a53.9,53.9,0,0,1-16.79,2.47c-14.64,0-29.81-4.63-42.3-8.46-8.58-2.62-16-4.88-20.86-4.88a44.38,44.38,0,0,0-18.95,4v-1.86a46.41,46.41,0,0,1,18.95-3.83c5.11,0,12.63,2.29,21.34,4.95C353.35,372.49,375.9,379.38,394.65,373Z"></path><path d="M394.65,367.65v1.74a53.91,53.91,0,0,1-16.79,2.48c-14.64,0-29.81-4.64-42.3-8.46-8.58-2.62-16-4.89-20.86-4.89a44.36,44.36,0,0,0-18.95,4.05v-1.86a46.22,46.22,0,0,1,18.95-3.84c5.11,0,12.63,2.3,21.34,5C353.35,367.12,375.9,374,394.65,367.65Z"></path></g><path d="M390,414.64H328.79l21.38-100.18-52.9-3.53,97.38-7.39V410A4.65,4.65,0,0,1,390,414.64Z" style="isolation:isolate;opacity:0.2"></path><rect x="294.33" y="303.54" width="101.74" height="7.39" style="fill:#263238"></rect></g><g id="freepik--thremometer-1--inject-243"><path d="M204.86,328.87c-5.09,14.45-48,76.91-52.73,79.23-3.77,1.83-29.38,4-40.14,2.12S81.25,396.58,81.67,387C82,379,96.05,304.83,110.89,281.21c2.34-3.73,4.7-6.21,7-6.95a4.79,4.79,0,0,1,1.48-.25l.26,0h0c4.89.85,70.76,12.25,80,15.88l.21.08c2.95,1.22,5,4.36,6.32,8.52C208.84,306.83,208.25,319.25,204.86,328.87Z" style="fill:#3378FF"></path><path d="M204.86,328.87c-4.07,11.57-32.39,53.92-45.94,71.53-13.89,2.73-33.83,2-40.48,1.71a11.84,11.84,0,0,1-4.22-1c-17.73-8-27.07-17.59-31.3-23.09,3.8-22.35,15.6-77.13,28-96.82,2.34-3.73,4.7-6.21,7-6.95a4.79,4.79,0,0,1,1.48-.25l.26,0h0c4.89.85,70.76,12.25,80,15.88l.21.08c2.95,1.22,5,4.36,6.32,8.52C208.84,306.83,208.25,319.25,204.86,328.87Z" style="fill:#fff;opacity:0.5"></path><path d="M206.26,298.53c-.84,2.16-3,4.18-4.87,5.43-5.87,4-14.62,6.08-26,6.08-12.24,0-27.41-2.43-45.09-7.22a18.81,18.81,0,0,1-9.53-6.06l-6.64-7.85a14.07,14.07,0,0,1-3.25-7.7c2.34-3.73,4.7-6.21,7-6.95.59-.1,1.17-.16,1.74-.21h0c.47,0,.93,0,1.38,0h35.13a26.55,26.55,0,0,1,10.29,2.06l33.25,13.86.21.08C202.89,291.23,205,294.37,206.26,298.53Z" style="fill:#3378FF"></path><path d="M121.06,275.07h35.13a21.43,21.43,0,0,1,8.25,1.65l33.47,13.94a2.69,2.69,0,0,1,.49,4.69c-6.16,4.23-23.15,9.91-66.7-1.88a13.63,13.63,0,0,1-6.87-4.37l-6.64-7.85A3.76,3.76,0,0,1,121.06,275.07Z" style="fill:#263238"></path><path d="M207.33,318.39a53.09,53.09,0,0,1-2.47,10.48c-5.09,14.45-48,76.91-52.73,79.23-3.77,1.83-29.38,4-40.14,2.12,0,0,5.67-10.27,19.53-49.26s18.9-38.52,29.38-38.84C169.67,321.87,194.44,326.7,207.33,318.39Z" style="isolation:isolate;opacity:0.1"></path><path d="M124.51,336.07,110.7,371.73a2.22,2.22,0,0,1-2.74,1.32c-8.44-2.67-12.86-6.87-14.64-8.95a3.19,3.19,0,0,1-.73-2.61A240.63,240.63,0,0,1,103,320.39a1.28,1.28,0,0,1,2-.57s0,0,.06,0c5.58,4.87,14.09,10.05,18.14,12.41a3.1,3.1,0,0,1,1.46,2A3,3,0,0,1,124.51,336.07Z" style="isolation:isolate;opacity:0.1"></path><path d="M124.65,334.27,110.05,372a.15.15,0,0,1-.12.06h0c-8.61-2.72-13.12-6.9-15-9.13a1.22,1.22,0,0,1-.27-1A269.55,269.55,0,0,1,105,319.82s0,0,.06,0c5.58,4.87,14.09,10.05,18.14,12.41A3.1,3.1,0,0,1,124.65,334.27Z" style="fill:#fff;opacity:0.30000000000000004"></path><path d="M189.27,377.21c-3.36,6.2-10.63,8.89-14.25,4.81s-13.7-4.57-15.36-6.1a3,3,0,0,1-.44-2.3,42.87,42.87,0,0,1,2.1-8.64A153.33,153.33,0,0,1,180,369.92C186,372,190.68,374.61,189.27,377.21Z" style="fill:#3378FF"></path><path d="M189.27,377.21c-3.36,6.2-10.63,8.89-14.25,4.81s-13.7-4.57-15.36-6.1a3,3,0,0,1-.44-2.3c.55,2.3,4.81,2.27,9.37,3.59s7.68,4.62,8.94,4.94-2.94-5,1.4-11a5.82,5.82,0,0,1,1.11-1.18C186,372,190.68,374.61,189.27,377.21Z" style="isolation:isolate;opacity:0.2"></path><path d="M320.85,358.91c.39,1-.05-.05-.16-.24s-.34-.58-.52-.85c-.36-.55-.74-1.08-1.11-1.62a3.06,3.06,0,0,1-.48-2c-16.68-10-23.84-4.32-66.48-18.41-22.28-7.37-44.24-21.07-44.24-21.07s-1.27,8-15.94,9.48c-9.38,1-23.38-.08-32.26-1a11.87,11.87,0,0,0-13,10.1c-1.45,10.49-.25,32.4,29.73,42.62,42.34,14.43,83.7,40.13,90,43.91s31,6.84,41.2-4.61c1.9-2.14,13.57-41.16,13.81-55.19A6.22,6.22,0,0,1,320.85,358.91Z" style="fill:#3378FF"></path><path d="M320.85,358.91c.39,1-.05-.05-.16-.24s-.34-.58-.52-.85c-.36-.55-.74-1.08-1.11-1.62a3.06,3.06,0,0,1-.48-2c-.46-.28-.92-.55-1.37-.8-15.74-8.88-23.66-3.91-65.11-17.61-22.28-7.37-44.23-21.08-44.23-21.08s-1.27,8-16,9.49c-9.38,1-23.38-.08-32.27-1a11.89,11.89,0,0,0-13,10.1c-1.45,10.49-.25,32.4,29.74,42.62,37.76,12.87,74.75,34.71,86.77,42h0l3.22,1.94c6.31,3.77,31,6.85,41.2-4.62,1.9-2.13,13.58-41.14,13.82-55.18A6.22,6.22,0,0,1,320.85,358.91Z" style="fill:#fff;opacity:0.5"></path><path d="M320.85,358.91c.39,1-.05-.05-.16-.24s-.34-.58-.52-.85c-.36-.55-.74-1.08-1.11-1.62a3.06,3.06,0,0,1-.48-2c-.46-.28-.92-.55-1.37-.8-5.74-1.23-13.19.21-19.19,5.05-8.63,7-18.2,23.78-21.68,39.58s-.72,19.14,0,21.65-8.63.83-13.11-1.76h0l3.22,1.94c6.31,3.77,31.13,6.93,41.2-4.62,4.36-5,19-32.92,13.82-55.18A6.22,6.22,0,0,1,320.85,358.91Z" style="fill:#3378FF"></path><path d="M320.85,358.91c.39,1-.05-.05-.16-.24s-.34-.58-.52-.85c-.36-.55-.74-1.08-1.11-1.62a3.06,3.06,0,0,1-.48-2c-.46-.28-.92-.55-1.37-.8-5.74-1.23-13.19.21-19.19,5.05-8.63,7-18.2,23.78-21.68,39.58s-.72,19.14,0,21.65-8.63.83-13.11-1.76h0l3.22,1.94c6.31,3.77,31.13,6.93,41.2-4.62,4.36-5,19-32.92,13.82-55.18A6.22,6.22,0,0,1,320.85,358.91Z" style="fill:#fff;opacity:0.5"></path><path d="M320.85,358.91c.39,1-.05-.05-.16-.24s-.34-.58-.52-.85c-.36-.55-.74-1.08-1.11-1.62a3.06,3.06,0,0,1-.48-2c-.46-.28-.92-.55-1.37-.8-5.74-1.23-13.19.21-19.19,5.05-8.63,7-18.2,23.78-21.68,39.58s-.72,19.14,0,21.65-8.63.83-13.11-1.76h0l3.22,1.94c6.31,3.77,31.13,6.93,41.2-4.62,4.36-5,19-32.92,13.82-55.18A6.22,6.22,0,0,1,320.85,358.91Z" style="isolation:isolate;opacity:0.1"></path><path d="M195.69,290.81c-13.94-2.17-41.12,1.25-48.84,2.3l-1.48.21-.61.08-3.43-2.69-17.22-13.5a222.42,222.42,0,0,1,25.33-1.31c1.9,0,3.64,0,5.15.05l2,.06c2.68.08,4.25.17,4.25.17Z" style="fill:#fff;opacity:0.5"></path><path d="M109.39,332a2.83,2.83,0,0,0-1.65.56,4.82,4.82,0,0,0,0,8.24,2.9,2.9,0,0,0,1.65.56c2,0,3.55-2.1,3.55-4.68S111.35,332,109.39,332Z" style="fill:#3378FF"></path><path d="M112,336.64c0,2.39-1.47,4.33-3.28,4.33s-3.29-1.94-3.29-4.33,1.47-4.33,3.29-4.33S112,334.25,112,336.64Z" style="fill:#fff;opacity:0.2"></path><path d="M105.55,348.73a1.71,1.71,0,0,0-1,.32,2.82,2.82,0,0,0,0,4.8,1.72,1.72,0,0,0,1,.33c1.14,0,2.06-1.22,2.06-2.73S106.69,348.73,105.55,348.73Z" style="fill:#3378FF"></path><path d="M107.06,351.45a2.28,2.28,0,0,1-1.91,2.52c-1.06,0-1.91-1.13-1.91-2.52s.85-2.52,1.91-2.52A2.28,2.28,0,0,1,107.06,351.45Z" style="fill:#fff;opacity:0.2"></path><path d="M103.81,356a1.62,1.62,0,0,0-1,.33,2.81,2.81,0,0,0,0,4.79,1.69,1.69,0,0,0,1,.33c1.14,0,2.07-1.22,2.07-2.73S105,356,103.81,356Z" style="fill:#3378FF"></path><path d="M105.33,358.72c0,1.4-.86,2.53-1.91,2.53s-1.91-1.13-1.91-2.53.85-2.52,1.91-2.52A2.28,2.28,0,0,1,105.33,358.72Z" style="fill:#fff;opacity:0.2"></path><path d="M321.18,358.91v0l-12.25,47.72-.18.69c-12.31,7.05-27.75,7.05-27.75,7.05l11.78-49.87a2.23,2.23,0,0,0-1.36-2.63c-3.87-1.5-12.09-4.24-12.09-4.24.16-.25.33-.5.51-.74a13.94,13.94,0,0,1,1.61-1.9l.11-.13c.21-.21.43-.41.64-.6s.43-.39.66-.58l.65-.53.37-.28c.2-.16.42-.29.62-.44a27.65,27.65,0,0,1,2.71-1.65c.46-.24.91-.47,1.37-.68s.95-.44,1.42-.63l.17-.07c.4-.17.8-.33,1.18-.47l1.34-.47.53-.17.56-.17a29.44,29.44,0,0,1,3-.75h.48a39.29,39.29,0,0,1,15.4,3.39.91.91,0,0,1,.17.09c.66.29,1.33.63,2,1l.53.29c.66.39,1.26.75,1.79,1.09l.43.3C321.59,356.41,321.24,358.65,321.18,358.91Z" style="fill:#3378FF"></path><path d="M321.18,358.91v0l-12.25,47.72-.18.69c-12.31,7.05-27.75,7.05-27.75,7.05l11.78-49.87a2.23,2.23,0,0,0-1.36-2.63c-3.87-1.5-12.09-4.24-12.09-4.24.16-.25.33-.5.51-.74a13.94,13.94,0,0,1,1.61-1.9l.11-.13c.21-.21.43-.41.64-.6s.43-.39.66-.58l.65-.53.37-.28c.2-.16.42-.29.62-.44a27.65,27.65,0,0,1,2.71-1.65c.46-.24.91-.47,1.37-.68s.95-.44,1.42-.63l.17-.07c.4-.17.8-.33,1.18-.47l1.34-.47.53-.17.56-.17a29.44,29.44,0,0,1,3-.75h.48a39.29,39.29,0,0,1,15.4,3.39.91.91,0,0,1,.17.09c.66.29,1.33.63,2,1l.53.29c.66.39,1.26.75,1.79,1.09l.43.3C321.59,356.41,321.24,358.65,321.18,358.91Z" style="fill:#fff;opacity:0.30000000000000004"></path><path d="M321.18,358.91v0l-12.25,47.72c-12.15,6.56-26.86,6.56-26.86,6.56l11.78-49.88a2.21,2.21,0,0,0-.06-1.28h0a2.21,2.21,0,0,0-1.29-1.35c-3.87-1.49-12.09-4.24-12.09-4.24a14.84,14.84,0,0,1,1.05-1.45l.11-.13c.21-.21.43-.41.64-.6s.43-.39.66-.58l.65-.53.37-.28c.2-.16.42-.29.62-.44a27.65,27.65,0,0,1,2.71-1.65c.46-.24.91-.47,1.37-.68s.95-.44,1.42-.63l.17-.07c.4-.17.8-.33,1.18-.47l1.34-.47.53-.17.56-.17a29.44,29.44,0,0,1,3-.75h.48a39.29,39.29,0,0,1,15.4,3.39.91.91,0,0,1,.17.09c.64.29,1.3.63,2,1l.53.29c.66.37,1.26.73,1.79,1.09l.43.3a13.77,13.77,0,0,1,1.85,1.57C321.46,357.19,321.23,358.7,321.18,358.91Z" style="fill:#fff;opacity:0.30000000000000004"></path><path d="M321.18,358.91v0l-12.25,47.72c-12.15,6.56-26.86,6.56-26.86,6.56l11.78-49.88a2.21,2.21,0,0,0-.06-1.28c.44-.35,10.2-7.92,18-7.91,3.74,0,6.1.35,7.65,1C321.46,357.19,321.23,358.7,321.18,358.91Z" style="isolation:isolate;opacity:0.1"></path><path d="M149.44,275.9a60.44,60.44,0,0,0-8.11,14.81l-17.22-13.5A222.42,222.42,0,0,1,149.44,275.9Z" style="fill:#fff;opacity:0.2"></path><path d="M156.64,276c-5.52,6.89-8.35,12.74-9.79,17.1l-1.48.21A73.35,73.35,0,0,1,154.59,276Z" style="fill:#fff;opacity:0.2"></path></g></svg>